# xmcd
#
# Track frame offsets: 
#        150
#        27963
#        45087
#        79914
#        125892
#
# Disc length: 2038 seconds
#
# Revision: 0
# Processed by: cddbd v1.4PL0 Copyright (c) Steve Scherf et al.
# Submitted via: ExactAudioCopy v0.90b3
#
DISCID=3707f405
DTITLE=New Grass Revival - NGR
DYEAR=1984
DGENRE=Bluegrass
TTITLE0=jerusalem moan
TTITLE1=baton rouge
TTITLE2=hold to a dream
TTITLE3=this track
TTITLE4=that track
EXTD=extended info
EXTT0=extended 1
EXTT1=ext 2
EXTT2=ext 3
EXTT3=ext 4  ||pipepipe
EXTT4=dhfghfghfghfghfghfg
PLAYORDER=
